Coordinates
version=1
nRows=9
nColumns=42
inDegrees=yes

Units are S.I. units (second, meters, Newtons, ...)
If the header above contains a line with 'inDegrees', this indicates whether rotational values are in degrees (yes) or radians (no).

endheader
time	pelvis_tilt	pelvis_list	pelvis_rotation	pelvis_tx	pelvis_ty	pelvis_tz	hip_flexion_r	hip_adduction_r	hip_rotation_r	knee_angle_r	knee_adduction_r	knee_angle_r_beta	ankle_angle_r	subtalar_angle_r	mtp_angle_r	hip_flexion_l	hip_adduction_l	hip_rotation_l	knee_angle_l	knee_adduction_l	knee_angle_l_beta	ankle_angle_l	subtalar_angle_l	mtp_angle_l	lumbar_extension	lumbar_bending	lumbar_rotation	arm_flex_r	arm_add_r	arm_rot_r	elbow_flex_r	pro_sup_r	wrist_flex_r	wrist_dev_r	arm_flex_l	arm_add_l	arm_rot_l	elbow_flex_l	pro_sup_l	wrist_flex_l	wrist_dev_l
      1.47000000	      9.27962477	     -1.57870632	     -6.65570966	      1.18799505	      0.79902186	     -0.27438683	    -22.17481491	     -7.19508668	    -31.26752538	     29.53432253	     -5.77951731	      0.51547117	     22.25873098	     36.86215004	     -7.50031511	     26.26619270	     -6.44382317	    -27.76396666	     27.80510329	     -5.27265739	      0.48529060	     17.32677812	     14.07091185	     -7.50031511	    -21.29514958	     -0.53437093	     13.53714166	      8.24904908	    -25.16196884	      4.42856201	     45.56709993	     90.00000001	      0.00000000	      0.00000000	    -13.16363525	     -8.34444306	    -56.30788495	     26.10293787	     90.00000001	      0.00000000	      0.00000000
      1.48000000	      9.30372101	     -1.18487385	     -6.86904843	      1.20477453	      0.79801346	     -0.27580214	    -22.11699643	     -8.18183613	    -30.33803466	     31.47975237	     -6.24857812	      0.54942533	     19.11684979	     35.81821243	     -7.50028958	     25.90425557	     -5.48566566	    -25.83644621	     28.99958053	     -5.33174043	      0.50613816	     15.51480836	      9.43408122	     -7.50028958	    -21.08913553	     -1.04540406	     13.31897704	      7.92310344	    -25.08645506	      4.19170562	     45.79413663	     90.00000001	      0.00000000	      0.00000000	    -13.33431299	     -8.44479536	    -57.06016434	     25.13180439	     90.00000001	      0.00000000	      0.00000000
      1.49000000	      9.38444847	     -0.85547726	     -7.03139103	      1.22163459	      0.79710916	     -0.27732977	    -21.87570893	     -9.11470073	    -29.49481058	     33.76056905	     -6.83877946	      0.58923309	     16.40372524	     34.75463530	     -7.50027883	     25.62192875	     -4.91017054	    -25.30156736	     30.60446928	     -5.61842901	      0.53414875	     14.47770719	      7.99145776	     -7.50027883	    -20.95148721	     -1.47028897	     13.02524064	      7.67971610	    -24.99211580	      4.06997524	     45.79126870	     90.00000001	      0.00000000	      0.00000000	    -13.59291040	     -8.41973978	    -57.45477231	     24.73459611	     90.00000001	      0.00000000	      0.00000000
      1.50000000	      9.34021368	     -0.51011360	     -7.12842967	      1.23824436	      0.79639359	     -0.27904713	    -21.18929391	     -9.96332507	    -28.18164609	     36.46489574	     -7.35445078	      0.63643249	     13.69230922	     32.78510204	     -7.50025717	     25.35852869	     -4.24798119	    -24.20143765	     32.09483050	     -5.59661467	      0.56016047	     13.29685257	      5.38346700	     -7.50025717	    -20.71172084	     -1.87119877	     12.67990014	      7.42817415	    -24.84673112	      3.79713527	     45.83278039	     90.00000001	      0.00000000	      0.00000000	    -13.61665372	     -8.41787623	    -58.20870540	     24.11761298	     90.00000001	      0.00000000	      0.00000000
      1.51000000	      9.31732782	     -0.14923895	     -7.19464504	      1.25471441	      0.79586797	     -0.28083201	    -20.14730545	    -10.85582464	    -27.30563464	     39.60232745	     -8.21058839	      0.69119101	     10.94171785	     30.94522296	     -7.50024973	     25.11537363	     -3.74813655	    -24.04363527	     33.68727342	     -5.76873424	      0.58795384	     12.76376855	      4.61145349	     -7.50024973	    -20.52482882	     -2.28202967	     12.30603017	      7.12196666	    -24.74590518	      3.71162067	     45.78927916	     90.00000001	      0.00000000	      0.00000000	    -13.65414331	     -8.33506933	    -58.43033433	     23.86650282	     90.00000001	      0.00000000	      0.00000000
      1.52000000	      9.24429242	      0.19448310	     -7.20771068	      1.27083053	      0.79575149	     -0.28269572	    -18.80668749	    -11.48073934	    -25.24560655	     43.01721264	     -8.60355555	      0.75079200	      8.30461261	     26.93469268	     -7.50023260	     24.77270634	     -3.17026350	    -23.27102851	     35.05258624	     -5.60818644	      0.61178304	     12.27947452	      2.98488792	     -7.50023260	    -20.34805175	     -2.64397097	     11.88976048	      6.80632714	    -24.59605065	      3.47388136	     45.77194522	     90.00000001	      0.00000000	      0.00000000	    -13.41345604	     -8.27240638	    -58.80433768	     23.46794574	     90.00000001	      0.00000000	      0.00000000
      1.53000000	      9.18090327	      0.58010164	     -7.21544869	      1.28664472	      0.79588233	     -0.28454017	    -17.10420713	    -12.12064563	    -23.35342024	     46.78570805	     -9.10354042	      0.81656465	      6.03848353	     23.07629630	     -7.50021783	     24.35159814	     -2.56270821	    -22.78548512	     36.27996189	     -5.48761790	      0.63320479	     12.28937679	      2.06443581	     -7.50021783	    -20.21290109	     -3.05277822	     11.47092237	      6.46196778	    -24.41611252	      3.30060171	     45.70667663	     90.00000001	      0.00000000	      0.00000000	    -13.13185083	     -8.20957232	    -58.95148501	     23.29314381	     90.00000001	      0.00000000	      0.00000000
      1.54000000	      9.12802665	      0.97630585	     -7.20545635	      1.30213856	      0.79638879	     -0.28637068	    -15.13268377	    -12.64767848	    -21.12791145	     50.74147150	     -9.36656226	      0.88560574	      4.16816097	     18.54931953	     -7.50020477	     23.79271272	     -1.88382938	    -22.34993406	     37.25062218	     -5.37272512	      0.65014601	     12.61612556	      1.34906700	     -7.50020477	    -20.13756432	     -3.46060428	     11.05750295	      6.11981012	    -24.24593618	      3.14466567	     45.61328751	     90.00000001	      0.00000000	      0.00000000	    -12.69412038	     -8.10160522	    -58.85331073	     23.22531556	     90.00000001	      0.00000000	      0.00000000
      1.55000000	      9.06581214	      1.38263156	     -7.21511044	      1.31729636	      0.79725017	     -0.28810390	    -12.90789913	    -13.05145146	    -18.52877055	     54.76017600	     -9.28575758	      0.95574537	      2.78893365	     13.64416074	     -7.50019239	     23.08716483	     -1.17001216	    -22.05456318	     37.91641479	     -5.25938152	      0.66176628	     13.21626491	      0.93768707	     -7.50019239	    -20.09063208	     -3.87181215	     10.66395481	      5.78978776	    -24.04000356	      2.99689582	     45.47549570	     90.00000001	      0.00000000	      0.00000000	    -12.14203495	     -7.97255378	    -58.51327323	     23.26619287	     90.00000001	      0.00000000	      0.00000000
